<?xml version="1.0" standalone="no"?>
<!DOCTYPE svg PUBLIC "-//W3C//DTD SVG 20010904//EN"
 "http://www.w3.org/TR/2001/REC-SVG-20010904/DTD/svg10.dtd">
<svg version="1.0" xmlns="http://www.w3.org/2000/svg"
 width="231.000000pt" height="231.000000pt" viewBox="0 0 231.000000 231.000000"
 preserveAspectRatio="xMidYMid meet">
<metadata>
Created by potrace 1.11, written by Peter Selinger 2001-2013
</metadata>
<g transform="translate(0.000000,231.000000) scale(0.100000,-0.100000)"
fill="#000000" stroke="none">
<path d="M1350 1568 c-29 -46 -75 -126 -103 -178 -51 -97 -74 -130 -88 -130
-5 0 -4 11 1 25 5 14 7 58 4 98 -4 47 -3 81 5 95 8 14 8 23 0 27 -11 8 -49
-22 -49 -39 0 -5 -14 -34 -32 -63 -24 -40 -37 -52 -50 -47 -26 8 -35 -40 -15
-81 21 -44 72 -60 128 -41 25 9 41 10 48 3 6 -6 21 14 44 60 33 64 112 153
137 153 15 0 13 -5 -22 -62 -25 -40 -32 -64 -33 -102 0 -45 2 -50 27 -57 19
-5 38 -1 62 11 28 14 36 15 40 4 3 -8 20 -14 42 -14 28 0 44 8 70 34 19 19 34
41 34 50 0 22 -17 20 -25 -4 -6 -20 -60 -70 -76 -70 -19 0 -8 53 26 120 35 70
43 104 25 115 -11 7 -53 -58 -85 -130 -24 -54 -71 -108 -89 -102 -23 8 -16 50
18 113 54 98 42 150 -26 111 -15 -9 -28 -14 -28 -12 0 2 18 33 40 67 37 59 54
128 31 128 -5 0 -33 -37 -61 -82z m-235 -295 c-7 -31 -39 -29 -54 3 -10 23 -8
32 21 78 l33 51 3 -55 c2 -29 1 -64 -3 -77z"/>
<path d="M804 1537 c-9 -24 0 -52 16 -52 21 0 24 39 6 55 -13 10 -17 9 -22 -3z"/>
<path d="M1561 1532 c-12 -23 9 -59 27 -48 16 10 15 41 -2 55 -12 10 -17 8
-25 -7z"/>
<path d="M247 1413 c-52 -91 -73 -144 -64 -167 11 -28 21 -18 60 59 35 68 103
145 127 145 15 0 13 -3 -26 -77 -41 -79 -43 -120 -3 -142 22 -12 29 -12 57 2
18 8 32 11 32 6 0 -27 24 -1 55 59 19 37 42 76 52 87 23 26 73 65 84 65 5 0
-7 -30 -27 -68 -55 -106 -43 -172 28 -156 39 8 36 -13 -4 -34 -18 -9 -52 -36
-75 -58 -33 -32 -43 -49 -43 -73 0 -66 35 -90 79 -53 12 9 40 54 64 98 37 73
49 87 108 126 l65 44 18 -23 c23 -31 75 -31 109 1 41 38 74 115 66 154 -9 45
-36 72 -72 72 -41 0 -103 -66 -120 -126 -8 -32 -25 -58 -54 -85 -23 -21 -47
-39 -52 -39 -6 0 12 46 40 102 46 96 58 143 34 143 -5 0 -32 -42 -60 -93 -52
-97 -90 -145 -109 -139 -23 8 -16 50 19 114 41 74 44 116 8 121 -13 2 -38 -8
-58 -24 l-35 -26 0 26 c0 14 -4 26 -10 26 -10 0 -79 -115 -103 -172 -19 -45
-64 -79 -78 -57 -11 18 -4 40 39 122 29 53 34 71 26 85 -17 27 -48 25 -83 -3
l-31 -27 0 26 c0 48 -18 36 -63 -41z m733 12 c0 -8 -4 -17 -10 -20 -6 -4 -10
5 -10 20 0 15 4 24 10 20 6 -3 10 -12 10 -20z m-50 -7 c0 -6 7 -19 16 -29 21
-23 13 -54 -26 -101 -77 -93 -100 7 -27 115 19 28 37 36 37 15z m-310 -266 c0
-5 -19 -38 -42 -73 -39 -61 -57 -67 -44 -14 11 42 86 118 86 87z"/>
<path d="M1782 1435 c-63 -72 -74 -167 -22 -195 33 -18 94 -11 130 14 l35 24
22 -24 c46 -50 111 -22 160 69 22 41 27 60 22 81 -11 41 -48 76 -79 76 -35 0
-95 -62 -115 -120 -34 -97 -139 -155 -160 -88 -11 34 15 106 55 151 40 44 61
45 42 2 -16 -34 -15 -60 2 -74 11 -10 17 -3 31 33 16 43 16 47 1 71 -12 19
-25 25 -50 25 -28 0 -42 -8 -74 -45z m308 -10 c0 -14 -4 -25 -10 -25 -11 0
-14 33 -3 43 11 11 13 8 13 -18z m-19 -74 c-5 -27 -53 -90 -73 -97 -11 -3 -25
-1 -31 5 -16 16 7 97 40 139 l25 34 21 -34 c12 -18 20 -39 18 -47z"/>
<path d="M1624 1265 c-9 -22 3 -45 20 -39 17 6 29 32 20 45 -8 14 -34 11 -40
-6z"/>
<path d="M1265 1118 c-189 -21 -404 -86 -575 -174 -123 -63 -358 -225 -360
-246 0 -16 20 -7 62 29 123 104 374 242 538 297 293 97 642 111 978 37 54 -12
81 -14 79 -7 -5 15 -135 42 -292 61 -141 16 -303 18 -430 3z"/>
</g>
</svg>
